<?xml version="1.0" encoding="UTF-8" standalone="no"?>
<!DOCTYPE svg PUBLIC "-//W3C//DTD SVG 1.1//EN"
 "http://www.w3.org/Graphics/SVG/1.1/DTD/svg11.dtd">
<!-- Generated by graphviz version 2.50.0 (0)
 -->
<!-- Pages: 1 -->
<svg width="208pt" height="188pt"
 viewBox="0.00 0.00 208.24 188.00" xmlns="http://www.w3.org/2000/svg" xmlns:xlink="http://www.w3.org/1999/xlink">
<g id="graph0" class="graph" transform="scale(1 1) rotate(0) translate(4 184)">
<polygon fill="white" stroke="transparent" points="-4,4 -4,-184 204.24,-184 204.24,4 -4,4"/>
<!-- age -->
<g id="node1" class="node">
<title>age</title>
<ellipse fill="none" stroke="black" cx="133.94" cy="-162" rx="27" ry="18"/>
<text text-anchor="middle" x="133.94" y="-158.3" font-family="Times New Roman,serif" font-size="14.00">age</text>
</g>
<!-- hasGraduateDegree -->
<g id="node2" class="node">
<title>hasGraduateDegree</title>
<ellipse fill="none" stroke="black" cx="79.94" cy="-90" rx="79.89" ry="18"/>
<text text-anchor="middle" x="79.94" y="-86.3" font-family="Times New Roman,serif" font-size="14.00">hasGraduateDegree</text>
</g>
<!-- age&#45;&gt;hasGraduateDegree -->
<g id="edge1" class="edge">
<title>age&#45;&gt;hasGraduateDegree</title>
<path fill="none" stroke="black" d="M121.96,-145.46C115.26,-136.78 106.75,-125.75 99.14,-115.89"/>
<polygon fill="black" stroke="black" points="101.91,-113.74 93.03,-107.96 96.36,-118.02 101.91,-113.74"/>
</g>
<!-- greaterThan50k -->
<g id="node3" class="node">
<title>greaterThan50k</title>
<ellipse fill="none" stroke="black" cx="133.94" cy="-18" rx="66.09" ry="18"/>
<text text-anchor="middle" x="133.94" y="-14.3" font-family="Times New Roman,serif" font-size="14.00">greaterThan50k</text>
</g>
<!-- age&#45;&gt;greaterThan50k -->
<g id="edge2" class="edge">
<title>age&#45;&gt;greaterThan50k</title>
<path fill="none" stroke="black" d="M147.32,-146C155.3,-136.01 164.69,-122.15 168.94,-108 173.55,-92.68 173.55,-87.32 168.94,-72 165.98,-62.12 160.51,-52.39 154.76,-44.01"/>
<polygon fill="black" stroke="black" points="157.49,-41.83 148.76,-35.83 151.85,-45.96 157.49,-41.83"/>
</g>
<!-- hasGraduateDegree&#45;&gt;greaterThan50k -->
<g id="edge3" class="edge">
<title>hasGraduateDegree&#45;&gt;greaterThan50k</title>
<path fill="none" stroke="black" d="M93.01,-72.05C99.52,-63.63 107.5,-53.28 114.68,-43.97"/>
<polygon fill="black" stroke="black" points="117.65,-45.84 120.99,-35.79 112.11,-41.57 117.65,-45.84"/>
</g>
</g>
</svg>
