<?xml version="1.0" encoding="UTF-8" standalone="no"?>
<!DOCTYPE svg PUBLIC "-//W3C//DTD SVG 1.1//EN"
 "http://www.w3.org/Graphics/SVG/1.1/DTD/svg11.dtd">
<!-- Generated by graphviz version 2.50.0 (0)
 -->
<!-- Pages: 1 -->
<svg width="476pt" height="332pt"
 viewBox="0.00 0.00 476.09 332.00" xmlns="http://www.w3.org/2000/svg" xmlns:xlink="http://www.w3.org/1999/xlink">
<g id="graph0" class="graph" transform="scale(1 1) rotate(0) translate(4 328)">
<polygon fill="white" stroke="transparent" points="-4,4 -4,-328 472.09,-328 472.09,4 -4,4"/>
<!-- LeadTime -->
<g id="node1" class="node">
<title>LeadTime</title>
<ellipse fill="none" stroke="black" cx="47.45" cy="-162" rx="47.39" ry="18"/>
<text text-anchor="middle" x="47.45" y="-158.3" font-family="Times New Roman,serif" font-size="14.00">LeadTime</text>
</g>
<!-- DifferentRoomAssigned -->
<g id="node2" class="node">
<title>DifferentRoomAssigned</title>
<ellipse fill="none" stroke="black" cx="181.45" cy="-90" rx="97.48" ry="18"/>
<text text-anchor="middle" x="181.45" y="-86.3" font-family="Times New Roman,serif" font-size="14.00">DifferentRoomAssigned</text>
</g>
<!-- LeadTime&#45;&gt;DifferentRoomAssigned -->
<g id="edge1" class="edge">
<title>LeadTime&#45;&gt;DifferentRoomAssigned</title>
<path fill="none" stroke="black" d="M74.24,-147C93.49,-136.95 119.76,-123.22 141.48,-111.88"/>
<polygon fill="black" stroke="black" points="143.23,-114.91 150.47,-107.18 139.99,-108.71 143.23,-114.91"/>
</g>
<!-- IsCanceled -->
<g id="node6" class="node">
<title>IsCanceled</title>
<ellipse fill="none" stroke="black" cx="306.45" cy="-18" rx="50.09" ry="18"/>
<text text-anchor="middle" x="306.45" y="-14.3" font-family="Times New Roman,serif" font-size="14.00">IsCanceled</text>
</g>
<!-- LeadTime&#45;&gt;IsCanceled -->
<g id="edge10" class="edge">
<title>LeadTime&#45;&gt;IsCanceled</title>
<path fill="none" stroke="black" d="M47.95,-143.94C49.51,-123.8 55.22,-90.68 75.45,-72 100.41,-48.94 189.34,-33.57 249.29,-25.57"/>
<polygon fill="black" stroke="black" points="249.93,-29.02 259.39,-24.26 249.02,-22.08 249.93,-29.02"/>
</g>
<!-- DifferentRoomAssigned&#45;&gt;IsCanceled -->
<g id="edge11" class="edge">
<title>DifferentRoomAssigned&#45;&gt;IsCanceled</title>
<path fill="none" stroke="black" d="M210.44,-72.76C228.74,-62.51 252.49,-49.21 271.79,-38.41"/>
<polygon fill="black" stroke="black" points="273.57,-41.42 280.58,-33.48 270.15,-35.32 273.57,-41.42"/>
</g>
<!-- BookingChanges -->
<g id="node3" class="node">
<title>BookingChanges</title>
<ellipse fill="none" stroke="black" cx="184.45" cy="-162" rx="71.49" ry="18"/>
<text text-anchor="middle" x="184.45" y="-158.3" font-family="Times New Roman,serif" font-size="14.00">BookingChanges</text>
</g>
<!-- BookingChanges&#45;&gt;DifferentRoomAssigned -->
<g id="edge2" class="edge">
<title>BookingChanges&#45;&gt;DifferentRoomAssigned</title>
<path fill="none" stroke="black" d="M183.7,-143.7C183.37,-135.98 182.98,-126.71 182.61,-118.11"/>
<polygon fill="black" stroke="black" points="186.1,-117.95 182.18,-108.1 179.11,-118.25 186.1,-117.95"/>
</g>
<!-- U -->
<g id="node4" class="node">
<title>U</title>
<ellipse fill="none" stroke="black" cx="360.45" cy="-234" rx="27" ry="18"/>
<text text-anchor="middle" x="360.45" y="-230.3" font-family="Times New Roman,serif" font-size="14.00">U</text>
</g>
<!-- U&#45;&gt;LeadTime -->
<g id="edge4" class="edge">
<title>U&#45;&gt;LeadTime</title>
<path fill="none" stroke="black" d="M334.48,-228.39C288.05,-219.97 187.84,-201.03 104.45,-180 100.61,-179.03 96.65,-177.98 92.69,-176.88"/>
<polygon fill="black" stroke="black" points="93.47,-173.46 82.89,-174.08 91.55,-180.19 93.47,-173.46"/>
</g>
<!-- HotelType -->
<g id="node5" class="node">
<title>HotelType</title>
<ellipse fill="none" stroke="black" cx="322.45" cy="-162" rx="48.19" ry="18"/>
<text text-anchor="middle" x="322.45" y="-158.3" font-family="Times New Roman,serif" font-size="14.00">HotelType</text>
</g>
<!-- U&#45;&gt;HotelType -->
<g id="edge3" class="edge">
<title>U&#45;&gt;HotelType</title>
<path fill="none" stroke="black" d="M351.63,-216.76C347.16,-208.53 341.62,-198.32 336.57,-189.02"/>
<polygon fill="black" stroke="black" points="339.59,-187.24 331.74,-180.12 333.44,-190.58 339.59,-187.24"/>
</g>
<!-- U&#45;&gt;IsCanceled -->
<g id="edge5" class="edge">
<title>U&#45;&gt;IsCanceled</title>
<path fill="none" stroke="black" d="M378.29,-220.25C415.01,-192.44 492.59,-124.64 455.45,-72 435.16,-43.26 397.86,-30.01 365.65,-23.95"/>
<polygon fill="black" stroke="black" points="365.84,-20.43 355.4,-22.22 364.68,-27.33 365.84,-20.43"/>
</g>
<!-- DepositType -->
<g id="node7" class="node">
<title>DepositType</title>
<ellipse fill="none" stroke="black" cx="390.45" cy="-90" rx="55.79" ry="18"/>
<text text-anchor="middle" x="390.45" y="-86.3" font-family="Times New Roman,serif" font-size="14.00">DepositType</text>
</g>
<!-- U&#45;&gt;DepositType -->
<g id="edge6" class="edge">
<title>U&#45;&gt;DepositType</title>
<path fill="none" stroke="black" d="M367.4,-216.58C371.5,-206.25 376.46,-192.55 379.45,-180 384.3,-159.58 387.1,-135.99 388.65,-118.23"/>
<polygon fill="black" stroke="black" points="392.14,-118.51 389.45,-108.26 385.16,-117.95 392.14,-118.51"/>
</g>
<!-- HotelType&#45;&gt;DifferentRoomAssigned -->
<g id="edge14" class="edge">
<title>HotelType&#45;&gt;DifferentRoomAssigned</title>
<path fill="none" stroke="black" d="M294.59,-147.17C274.13,-137.01 246,-123.05 222.91,-111.59"/>
<polygon fill="black" stroke="black" points="224.2,-108.32 213.69,-107.01 221.09,-114.59 224.2,-108.32"/>
</g>
<!-- HotelType&#45;&gt;IsCanceled -->
<g id="edge12" class="edge">
<title>HotelType&#45;&gt;IsCanceled</title>
<path fill="none" stroke="black" d="M320.52,-143.87C317.79,-119.67 312.78,-75.21 309.53,-46.39"/>
<polygon fill="black" stroke="black" points="312.98,-45.73 308.38,-36.19 306.02,-46.52 312.98,-45.73"/>
</g>
<!-- HotelType&#45;&gt;DepositType -->
<g id="edge13" class="edge">
<title>HotelType&#45;&gt;DepositType</title>
<path fill="none" stroke="black" d="M338.22,-144.76C346.85,-135.88 357.7,-124.71 367.27,-114.85"/>
<polygon fill="black" stroke="black" points="369.83,-117.24 374.29,-107.63 364.81,-112.37 369.83,-117.24"/>
</g>
<!-- DepositType&#45;&gt;IsCanceled -->
<g id="edge9" class="edge">
<title>DepositType&#45;&gt;IsCanceled</title>
<path fill="none" stroke="black" d="M370.96,-72.76C359.75,-63.42 345.5,-51.55 333.25,-41.33"/>
<polygon fill="black" stroke="black" points="335.46,-38.62 325.53,-34.91 330.97,-44 335.46,-38.62"/>
</g>
<!-- Country -->
<g id="node8" class="node">
<title>Country</title>
<ellipse fill="none" stroke="black" cx="305.45" cy="-306" rx="39.79" ry="18"/>
<text text-anchor="middle" x="305.45" y="-302.3" font-family="Times New Roman,serif" font-size="14.00">Country</text>
</g>
<!-- Country&#45;&gt;U -->
<g id="edge7" class="edge">
<title>Country&#45;&gt;U</title>
<path fill="none" stroke="black" d="M318.2,-288.76C325.34,-279.68 334.36,-268.19 342.24,-258.18"/>
<polygon fill="black" stroke="black" points="345.09,-260.21 348.51,-250.19 339.58,-255.89 345.09,-260.21"/>
</g>
<!-- TotalGuests -->
<g id="node9" class="node">
<title>TotalGuests</title>
<ellipse fill="none" stroke="black" cx="415.45" cy="-306" rx="52.79" ry="18"/>
<text text-anchor="middle" x="415.45" y="-302.3" font-family="Times New Roman,serif" font-size="14.00">TotalGuests</text>
</g>
<!-- TotalGuests&#45;&gt;U -->
<g id="edge8" class="edge">
<title>TotalGuests&#45;&gt;U</title>
<path fill="none" stroke="black" d="M402.41,-288.41C395.43,-279.53 386.72,-268.44 379.04,-258.67"/>
<polygon fill="black" stroke="black" points="381.56,-256.21 372.63,-250.51 376.06,-260.54 381.56,-256.21"/>
</g>
</g>
</svg>
